<svg xmlns="http://www.w3.org/2000/svg" viewBox="0 0 200 200" fill="none">
  <path d="M100 10 C120 30 120 50 100 60 C80 70 80 90 100 100 C120 110 120 130 100 140 C80 150 80 170 100 190" stroke="#1A1A1A" stroke-width="3" fill="none"/>
  <path d="M60 10 C80 30 80 50 60 60 C40 70 40 90 60 100 C80 110 80 130 60 140 C40 150 40 170 60 190" stroke="#1A1A1A" stroke-width="3" fill="none"/>
  <path d="M140 10 C160 30 160 50 140 60 C120 70 120 90 140 100 C160 110 160 130 140 140 C120 150 120 170 140 190" stroke="#1A1A1A" stroke-width="3" fill="none"/>
</svg>
